<svg t="1766833089540" class="icon" viewBox="0 0 1024 1024" version="1.1" xmlns="http://www.w3.org/2000/svg" p-id="21615" width="200" height="200"><path d="M484.318 47.514c-122.556-35.123-287.352 22-325.359 152.8a124.587 124.587 0 0 0-3.038 72.068 127.812 127.812 0 0 0 69.973 67.04c28.484 11.2 71.68 14.967 98.082 32.887 39.526 26.795-12.237 88.405-30.874 111.684-39.44 49.494-76.148 99.755-114.248 150.389-32.717 43.52-66.56 93.286-76.561 147.831-29.815 164.181 150.75 232.26 282.982 215.142 116.941-15.121 212.89-89.754 286.327-178.483 11.042-13.363 24.8-46.711 41.677-52.241 29.286-9.523 21.521 25.924 23.279 48.555a245.881 245.881 0 0 0 7.117 41.848 128.153 128.153 0 0 0 132.557 92.723c81.289-6.007 121.515-84.565 139.281-154.88a199.475 199.475 0 0 0-2.321-114.159c-3.84-10.394-5.12-19.439-17.835-17.835-16.794 2.236-20.719 19.849-27.119 32.427a278.768 278.768 0 0 1-39.253 60.006c-26.641 29.918-28.638 6.008-29.679-21.282-2.8-80.725-20.958-174.473-96-219.6-123.682-74.394-246.8 106.8-317.2 183.125-13.039 14.473-92.638 98.236-105.2 42.8-5.683-24.712 30.071-56.969 45.6-71.919 110.223-106.622 237.848-269.08 218.938-432.288A229.717 229.717 0 0 0 484.318 47.514z" fill="#BDCF46" p-id="21616"></path><path d="M432.965 182.562a36.9 36.9 0 0 0 36.8 37.274 38.11 38.11 0 0 0 34.88-40.246 36.864 36.864 0 0 0-36.967-37.2 37.871 37.871 0 0 0-34.713 40.172z" fill="#2F2F2F" p-id="21617"></path><path d="M190.84 282.642c-0.563 0.478-1.126 1.041-1.707 1.519a437.076 437.076 0 0 1-46.08 50.483 118.665 118.665 0 0 1-98.475 18.4c-9.471-2.17-37.631-18.964-39.765-1.282-2.56 22.409 45.193 33.041 61.2 34.645a63.268 63.268 0 0 1 27.307 4.232c14.729 8.96-7.441 30.328-16.077 36.079a82.107 82.107 0 0 1-31.369 12.8c-10.24 1.843-25.924-1.434-33.195 7.833-12.288 15.77 29.679 19.046 38.212 18.569 40.482-2.082 74.633-31.607 98.082-62.566 17.271-22.8 40.073-40.806 57.754-63.147a96.9 96.9 0 0 1 25.754-26.231c6.724-3.6 18.074-6.963 18.4-15.991 0.324-7.2-5.274-11.042-10.718-14.558a46.95 46.95 0 0 0-49.323-0.785z" fill="#ED6C30" p-id="21618"></path><path d="M986.556 866c-10.24-2.082-30 31.044-60.962 47.514s-67.123 15.752-110.473-3.84c-34.645-15.6-38.792-83.2-33.126-135.68 6.161-57.839-7.287-85.76-40.311-89.924-35.277-4.4-65.126 70.246-132.318 153.993C542.96 920.8 423.715 954.01 390.486 958.242c-46.08 1.519-99.362 2-146.4-71.919-52.241-82.159 8.533-193.672 54.886-267.366 29.116-42.8 139.2-172.169 150.084-222.72a64.631 64.631 0 0 0-65.192-77.837c-94.566-4.168-121.924 31.433-121.992 31.518a195.086 195.086 0 0 1 62.088 22.477c34.714 23.6-0.956 73.916-22.8 101.6-3.038 3.84-5.751 7.287-8.073 10.086-39.437 49.492-76.152 99.753-114.245 150.39-32.717 43.52-66.56 93.286-76.561 147.829-29.764 164.164 150.886 232.243 283.034 215.04a336.621 336.621 0 0 0 54.8-12.561c92.4-27.767 170-91.528 231.595-165.837 11.042-13.363 24.8-46.729 41.677-52.241 29.286-9.523 21.521 25.924 23.279 48.555a245.858 245.858 0 0 0 7.117 41.847 128.154 128.154 0 0 0 132.557 92.726c53.282-3.925 88.747-39.253 111.923-82.807-0.665-0.222-0.973-0.94-1.707-1.022z" fill="#E5DDA0" p-id="21619"></path></svg>